<svg width="86" height="86" viewBox="0 0 86 86" fill="none" xmlns="http://www.w3.org/2000/svg">
<g id="Coding-Apps-Website-Network-Globe--Streamline-Ultimate" clip-path="url(#clip0_136_1935)">
<g id="Coding-Apps-Website-Network-Globe--Streamline-Ultimate.svg">
<g id="Group">
<path id="Vector" d="M34.9731 40.3118H51.0265C50.5109 32.4744 48.3238 24.8381 44.6123 17.916H41.3873C37.6758 24.8381 35.4887 32.4744 34.9731 40.3118Z" fill="white"/>
<path id="Vector_2" d="M29.634 40.3115C30.0507 33.0432 31.7998 25.9134 34.794 19.2773C30.2697 20.8121 26.2779 23.607 23.288 27.3333C20.2981 31.0595 18.4345 35.5622 17.9165 40.3115H29.634Z" fill="white"/>
<path id="Vector_3" d="M56.3658 40.3115H68.0833C67.5769 35.5791 65.7346 31.0883 62.7714 27.3638C59.8083 23.6392 55.8466 20.8346 51.3491 19.2773C54.294 25.9228 55.9944 33.0523 56.3658 40.3115Z" fill="white"/>
<path id="Vector_4" d="M56.3656 45.6865C55.9488 52.9548 54.1998 60.0847 51.2056 66.7207C55.7298 65.1859 59.7217 62.391 62.7116 58.6648C65.7015 54.9385 67.5651 50.4359 68.0831 45.6865H56.3656Z" fill="white"/>
<path id="Vector_5" d="M29.634 45.6865H17.9165C18.4229 50.419 20.2652 54.9097 23.2283 58.6343C26.1915 62.3588 30.1532 65.1635 34.6507 66.7207C31.7058 60.0752 30.0054 52.9458 29.634 45.6865Z" fill="white"/>
<path id="Vector_6" d="M51.0265 45.6865H34.9731C35.505 53.5211 37.6911 61.154 41.3873 68.0824H44.6123C48.3238 61.1603 50.5109 53.5239 51.0265 45.6865Z" fill="white"/>
</g>
<path id="Vector_7" d="M43 0C41.9369 0 40.8977 0.315238 40.0138 0.905851C39.1299 1.49646 38.441 2.33592 38.0341 3.31808C37.6273 4.30023 37.5209 5.38096 37.7283 6.42361C37.9357 7.46626 38.4476 8.42399 39.1993 9.1757C39.951 9.92741 40.9087 10.4393 41.9514 10.6467C42.994 10.8541 44.0748 10.7477 45.0569 10.3409C46.0391 9.93403 46.8785 9.2451 47.4692 8.36119C48.0598 7.47728 48.375 6.43808 48.375 5.375C48.375 3.94946 47.8087 2.58231 46.8007 1.5743C45.7927 0.566293 44.4255 0 43 0Z" fill="white"/>
<path id="Vector_8" d="M43 75.25C41.9369 75.25 40.8977 75.5652 40.0138 76.1559C39.1299 76.7465 38.441 77.5859 38.0341 78.5681C37.6273 79.5502 37.5209 80.631 37.7283 81.6736C37.9357 82.7163 38.4476 83.674 39.1993 84.4257C39.951 85.1774 40.9087 85.6893 41.9514 85.8967C42.994 86.1041 44.0748 85.9977 45.0569 85.5908C46.0391 85.184 46.8785 84.4951 47.4692 83.6112C48.0598 82.7273 48.375 81.6881 48.375 80.625C48.375 79.1995 47.8087 77.8323 46.8007 76.8243C45.7927 75.8163 44.4255 75.25 43 75.25Z" fill="white"/>
<path id="Vector_9" d="M73.4224 12.579C72.6668 11.8195 71.7027 11.3014 70.6524 11.0904C69.602 10.8794 68.5127 10.9849 67.5224 11.3936C66.5321 11.8023 65.6854 12.4958 65.0896 13.3862C64.4938 14.2766 64.1758 15.3239 64.1758 16.3952C64.1758 17.4665 64.4938 18.5138 65.0896 19.4042C65.6854 20.2946 66.5321 20.9881 67.5224 21.3968C68.5127 21.8055 69.602 21.9111 70.6524 21.7C71.7027 21.489 72.6668 20.9709 73.4224 20.2115C74.4225 19.193 74.9829 17.8226 74.9829 16.3952C74.9829 14.9678 74.4225 13.5974 73.4224 12.579Z" fill="white"/>
<path id="Vector_10" d="M20.21 65.7899C19.4544 65.0304 18.4903 64.5123 17.44 64.3013C16.3896 64.0903 15.3003 64.1958 14.31 64.6045C13.3197 65.0133 12.473 65.7068 11.8772 66.5972C11.2814 67.4876 10.9634 68.5348 10.9634 69.6061C10.9634 70.6775 11.2814 71.7247 11.8772 72.6151C12.473 73.5055 13.3197 74.199 14.31 74.6077C15.3003 75.0165 16.3896 75.122 17.44 74.911C18.4903 74.7 19.4544 74.1819 20.21 73.4224C21.2101 72.4039 21.7705 71.0336 21.7705 69.6061C21.7705 68.1787 21.2101 66.8084 20.21 65.7899Z" fill="white"/>
<path id="Vector_11" d="M86 43C86 41.9369 85.6848 40.8977 85.0941 40.0138C84.5035 39.1299 83.6641 38.441 82.6819 38.0341C81.6998 37.6273 80.619 37.5209 79.5764 37.7283C78.5337 37.9357 77.576 38.4476 76.8243 39.1993C76.0726 39.951 75.5607 40.9087 75.3533 41.9514C75.1459 42.994 75.2523 44.0748 75.6592 45.0569C76.066 46.0391 76.7549 46.8785 77.6388 47.4692C78.5227 48.0598 79.5619 48.375 80.625 48.375C82.0505 48.375 83.4177 47.8087 84.4257 46.8007C85.4337 45.7927 86 44.4255 86 43Z" fill="white"/>
<path id="Vector_12" d="M10.75 43C10.75 41.9369 10.4348 40.8977 9.84415 40.0138C9.25354 39.1299 8.41408 38.441 7.43193 38.0341C6.44977 37.6273 5.36904 37.5209 4.32639 37.7283C3.28374 37.9357 2.32601 38.4476 1.5743 39.1993C0.822596 39.951 0.310677 40.9087 0.103282 41.9514C-0.104114 42.994 0.00232891 44.0748 0.40915 45.0569C0.815971 46.0391 1.5049 46.8785 2.38881 47.4692C3.27273 48.0598 4.31193 48.375 5.375 48.375C6.80054 48.375 8.16769 47.8087 9.1757 46.8007C10.1837 45.7927 10.75 44.4255 10.75 43Z" fill="white"/>
<path id="Vector_13" d="M73.4224 73.4214C74.1819 72.6658 74.7 71.7018 74.911 70.6514C75.122 69.6011 75.0165 68.5117 74.6077 67.5214C74.199 66.5311 73.5055 65.6844 72.6151 65.0886C71.7247 64.4928 70.6775 64.1748 69.6061 64.1748C68.5348 64.1748 67.4876 64.4928 66.5972 65.0886C65.7068 65.6844 65.0133 66.5311 64.6045 67.5214C64.1958 68.5117 64.0903 69.6011 64.3013 70.6514C64.5123 71.7018 65.0304 72.6658 65.7899 73.4214C66.8084 74.4216 68.1787 74.9819 69.6061 74.9819C71.0336 74.9819 72.4039 74.4216 73.4224 73.4214Z" fill="white"/>
<path id="Vector_14" d="M20.21 20.2105C20.9695 19.4549 21.4876 18.4908 21.6986 17.4405C21.9096 16.3901 21.8041 15.3008 21.3953 14.3105C20.9866 13.3201 20.2931 12.4735 19.4027 11.8777C18.5123 11.2819 17.4651 10.9639 16.3937 10.9639C15.3224 10.9639 14.2752 11.2819 13.3848 11.8777C12.4944 12.4735 11.8009 13.3201 11.3921 14.3105C10.9834 15.3008 10.8779 16.3901 11.0889 17.4405C11.2999 18.4908 11.818 19.4549 12.5775 20.2105C13.596 21.2106 14.9663 21.771 16.3937 21.771C17.8212 21.771 19.1915 21.2106 20.21 20.2105Z" fill="white"/>
</g>
</g>
<defs>
<clipPath id="clip0_136_1935">
<rect width="86" height="86" fill="white"/>
</clipPath>
</defs>
</svg>
