<svg width="85" height="85" viewBox="0 0 85 85" fill="none" xmlns="http://www.w3.org/2000/svg">
<g id="Network-Users--Streamline-Ultimate" clip-path="url(#clip0_136_2037)">
<g id="Network-Users--Streamline-Ultimate.svg">
<path id="Vector" d="M6.62256 60.6335C6.62256 63.0194 7.57033 65.3075 9.25738 66.9945C10.9444 68.6816 13.2325 69.6294 15.6184 69.6294C18.0042 69.6294 20.2924 68.6816 21.9794 66.9945C23.6665 65.3075 24.6142 63.0194 24.6142 60.6335C24.6142 58.2477 23.6665 55.9596 21.9794 54.2725C20.2924 52.5855 18.0042 51.6377 15.6184 51.6377C13.2325 51.6377 10.9444 52.5855 9.25738 54.2725C7.57033 55.9596 6.62256 58.2477 6.62256 60.6335Z" fill="black"/>
<path id="Vector_2" d="M15.6187 71.753C12.3307 71.6123 9.09138 72.5846 6.42428 74.5126C3.75719 76.4406 1.81822 79.2117 0.920789 82.378C0.857995 82.7065 0.887657 83.046 1.00647 83.3587C1.12528 83.6713 1.32858 83.9449 1.59371 84.1488C2.23525 84.6974 3.05165 84.9989 3.89579 84.9988H27.377C28.2002 85.0104 29.0017 84.7349 29.6437 84.2196C29.9088 84.0157 30.1121 83.7422 30.2309 83.4295C30.3498 83.1168 30.3794 82.7773 30.3166 82.4488C29.4382 79.2661 27.5063 76.4753 24.8366 74.5326C22.167 72.5898 18.9173 71.6099 15.6187 71.753Z" fill="black"/>
<path id="Vector_3" d="M60.3853 60.6323C60.3783 62.413 60.8999 64.1557 61.8842 65.6397C62.8684 67.1237 64.2708 68.2823 65.914 68.9686C67.5571 69.6549 69.367 69.8381 71.1143 69.495C72.8617 69.1519 74.4679 68.2979 75.7295 67.0413C76.9912 65.7846 77.8515 64.1818 78.2015 62.4358C78.5514 60.6898 78.3754 58.8792 77.6956 57.2334C77.0157 55.5875 75.8628 54.1805 74.3826 53.1904C72.9025 52.2004 71.1619 51.6719 69.3812 51.6719C67.0014 51.6719 64.7187 52.6148 63.0326 54.2942C61.3466 55.9736 60.3947 58.2526 60.3853 60.6323Z" fill="black"/>
<path id="Vector_4" d="M69.3814 71.7538C66.0921 71.6068 62.8497 72.5766 60.1813 74.5055C57.5129 76.4345 55.5753 79.2093 54.6835 82.3788C54.6207 82.7074 54.6504 83.0469 54.7692 83.3595C54.888 83.6722 55.0913 83.9457 55.3564 84.1497C55.9984 84.6649 56.7999 84.9404 57.6231 84.9288H81.1043C81.9396 84.9488 82.755 84.6728 83.4064 84.1497C83.6715 83.9457 83.8748 83.6722 83.9936 83.3595C84.1124 83.0469 84.1421 82.7074 84.0793 82.3788C83.1819 79.2126 81.2429 76.4415 78.5758 74.5134C75.9087 72.5854 72.6694 71.6132 69.3814 71.7538Z" fill="black"/>
<path id="Vector_5" d="M42.4998 0C36.896 0 31.4181 1.66172 26.7587 4.77503C22.0993 7.88833 18.4677 12.3134 16.3233 17.4906C14.1788 22.6679 13.6177 28.3648 14.7109 33.8609C15.8042 39.357 18.5027 44.4055 22.4652 48.368C26.4276 52.3305 31.4762 55.029 36.9723 56.1222C42.4684 57.2155 48.1653 56.6544 53.3425 54.5099C58.5198 52.3654 62.9448 48.7339 66.0582 44.0745C69.1715 39.4151 70.8332 33.9371 70.8332 28.3333C70.8332 20.8189 67.8481 13.6122 62.5345 8.29864C57.221 2.98511 50.0143 0 42.4998 0ZM64.2811 25.1812H54.5061C54.1139 18.8487 52.2069 12.7028 48.9457 7.26042C52.9355 8.49058 56.4944 10.8275 59.209 13.9997C61.9235 17.1719 63.6823 21.0493 64.2811 25.1812ZM42.4998 47.7771C39.1549 42.9651 37.1836 37.333 36.7978 31.4854H48.2019C47.8161 37.333 45.8448 42.9651 42.4998 47.7771ZM36.7978 25.1812C37.1836 19.3336 39.1549 13.7015 42.4998 8.88958C45.8448 13.7015 47.8161 19.3336 48.2019 25.1812H36.7978ZM36.054 7.26042C32.7928 12.7028 30.8858 18.8487 30.4936 25.1812H20.7186C21.3174 21.0493 23.0762 17.1719 25.7907 13.9997C28.5053 10.8275 32.0642 8.49058 36.054 7.26042ZM20.7186 31.4854H30.4936C30.8577 37.8787 32.7656 44.0885 36.054 49.5833C32.0398 48.3402 28.464 45.9766 25.7473 42.7705C23.0306 39.5644 21.286 35.6492 20.7186 31.4854ZM49.0519 49.4062C52.3132 43.9639 54.2201 37.818 54.6124 31.4854H64.3873C63.8116 35.6621 62.0512 39.5864 59.3146 42.7938C56.5779 46.0011 52.9797 48.3573 48.9457 49.5833L49.0519 49.4062Z" fill="black"/>
</g>
</g>
<defs>
<clipPath id="clip0_136_2037">
<rect width="85" height="85" fill="white"/>
</clipPath>
</defs>
</svg>
