<svg width="78" height="78" viewBox="0 0 78 78" fill="none" xmlns="http://www.w3.org/2000/svg">
<g id="Award-Ribbon-Star-1--Streamline-Ultimate">
<g id="Award-Ribbon-Star-1--Streamline-Ultimate.svg">
<path id="Vector" d="M11.2453 49.1066C11.1629 48.9946 11.0551 48.9038 10.9308 48.8417C10.8065 48.7795 10.6692 48.7478 10.5303 48.7491C10.3897 48.7544 10.2528 48.7961 10.1332 48.8701C10.0136 48.9442 9.91521 49.0481 9.84777 49.1716L2.04777 62.6266C1.75396 63.1519 1.61181 63.7485 1.63716 64.3499C1.66252 64.9512 1.85438 65.5338 2.19136 66.0325C2.52835 66.5312 2.99721 66.9266 3.5457 67.1745C4.09419 67.4224 4.70075 67.5131 5.29777 67.4366L13.0653 66.1366L15.7628 73.5791C15.9761 74.156 16.3487 74.6605 16.8374 75.034C17.326 75.4075 17.9107 75.6347 18.5233 75.6892C19.136 75.7436 19.7515 75.6231 20.2984 75.3417C20.8453 75.0602 21.301 74.6293 21.6128 74.0991L28.1128 63.2441C28.1697 63.1393 28.1995 63.022 28.1995 62.9028C28.1995 62.7836 28.1697 62.6663 28.1128 62.5616C28.0722 62.4495 28.0075 62.3478 27.9233 62.2635C27.839 62.1793 27.7373 62.1146 27.6253 62.0741C20.9126 59.6259 15.1684 55.0784 11.2453 49.1066Z" fill="white"/>
<path id="Vector_2" d="M75.9527 62.6256L68.2502 49.0731C68.1811 48.9535 68.0816 48.8543 67.9617 48.7858C67.8417 48.7173 67.7058 48.6818 67.5677 48.6831C67.4327 48.6785 67.2989 48.709 67.1792 48.7717C67.0596 48.8343 66.9583 48.927 66.8852 49.0406C62.9283 55.0282 57.1518 59.5857 50.4077 62.0406C50.1875 62.1328 50.0125 62.3079 49.9202 62.5281C49.8633 62.6328 49.8335 62.7501 49.8335 62.8693C49.8335 62.9885 49.8633 63.1058 49.9202 63.2106L56.4202 74.1306C56.7346 74.6599 57.1928 75.0891 57.7416 75.3681C58.2904 75.6471 58.9072 75.7645 59.5201 75.7066C60.1331 75.6487 60.7169 75.4179 61.2038 75.0411C61.6907 74.6643 62.0605 74.1569 62.2702 73.5781L64.9677 66.1356L72.7352 67.4356C73.3476 67.5482 73.9795 67.4824 74.5557 67.2462C75.1319 67.01 75.628 66.6132 75.9852 66.1031C76.3097 65.5799 76.4789 64.9753 76.4732 64.3596C76.4674 63.744 76.2869 63.1426 75.9527 62.6256Z" fill="white"/>
<path id="Vector_3" d="M67.3726 30.7441C67.3726 25.1169 65.7031 19.6162 62.5754 14.9383C59.4478 10.2604 55.0026 6.61554 49.8026 4.46509C44.6025 2.31465 38.8813 1.7553 33.3632 2.85785C27.8451 3.96039 22.7782 6.67526 18.8037 10.6588C14.8293 14.6424 12.126 19.7155 11.0361 25.2361C9.94617 30.7568 10.5186 36.4766 12.6809 41.6718C14.8433 46.8669 18.4983 51.3037 23.1834 54.4206C27.8684 57.5376 33.3729 59.1944 39.0001 59.1816C46.5309 59.1644 53.7474 56.1607 59.0664 50.8295C64.3854 45.4983 67.3726 38.2749 67.3726 30.7441ZM50.3101 41.8591C50.4753 42.2336 50.5163 42.6511 50.4272 43.0505C50.338 43.45 50.1234 43.8104 49.8147 44.0792C49.506 44.3479 49.1195 44.5109 48.7115 44.5441C48.3036 44.5774 47.8957 44.4793 47.5476 44.2641L39.3576 39.6491C39.2314 39.5861 39.0923 39.5534 38.9513 39.5534C38.8103 39.5534 38.6712 39.5861 38.5451 39.6491L30.3551 44.2641C30.0069 44.4793 29.599 44.5774 29.1911 44.5441C28.7832 44.5109 28.3966 44.3479 28.0879 44.0792C27.7792 43.8104 27.5646 43.45 27.4755 43.0505C27.3864 42.6511 27.4274 42.2336 27.5926 41.8591L30.8426 34.1891C30.9072 34.0357 30.9231 33.8661 30.8883 33.7034C30.8534 33.5406 30.7694 33.3925 30.6476 33.2791L24.7326 27.3641C24.4233 27.1233 24.2 26.7891 24.0959 26.4112C23.9918 26.0332 24.0125 25.6318 24.1549 25.2666C24.2974 24.9014 24.5539 24.592 24.8863 24.3843C25.2188 24.1767 25.6094 24.0819 26.0001 24.1141H32.8901C33.0451 24.1175 33.1979 24.0764 33.3303 23.9958C33.4628 23.9152 33.5694 23.7983 33.6376 23.6591L37.2126 16.2491C37.3834 15.9372 37.6349 15.6771 37.9408 15.4958C38.2467 15.3146 38.5958 15.219 38.9513 15.219C39.3069 15.219 39.6559 15.3146 39.9618 15.4958C40.2677 15.6771 40.5193 15.9372 40.6901 16.2491L44.2651 23.6266C44.3277 23.7633 44.4285 23.8789 44.5554 23.9597C44.6822 24.0404 44.8297 24.0827 44.9801 24.0816H52.0001C52.3936 24.041 52.7897 24.1299 53.1282 24.3346C53.4668 24.5393 53.7294 24.8487 53.8763 25.2161C54.0233 25.5834 54.0465 25.9886 53.9425 26.3703C53.8385 26.7521 53.613 27.0895 53.3001 27.3316L47.1251 33.2791C47.0125 33.3986 46.9372 33.5483 46.9084 33.7099C46.8795 33.8715 46.8983 34.038 46.9626 34.1891L50.3101 41.8591Z" fill="white"/>
</g>
</g>
</svg>
