<svg width="32" height="32" viewBox="0 0 32 32" fill="none" xmlns="http://www.w3.org/2000/svg">
<g id="Group">
<path id="Vector" d="M30.8485 25.0455L26.047 20.2326C25.0906 19.2779 23.5069 19.3069 22.5172 20.2992L20.0981 22.7232C19.9453 22.6387 19.7871 22.5506 19.6208 22.457C18.0932 21.6087 16.0025 20.4459 13.8024 18.2392C11.5958 16.0279 10.4346 13.9292 9.58557 12.3971C9.49598 12.2348 9.41014 12.0783 9.32537 11.9297L10.9489 10.305L11.7471 9.50398C12.7383 8.51026 12.7656 6.92335 11.8115 5.96589L7.00997 1.15243C6.05583 0.196308 4.47134 0.225314 3.48014 1.21904L2.12691 2.58312L2.16389 2.61991C1.71013 3.20021 1.33096 3.8695 1.04879 4.59124C0.788685 5.27825 0.626744 5.93384 0.552697 6.59077C-0.0813113 11.8587 2.32056 16.6733 8.83892 23.2065C17.8493 32.2367 25.1105 31.5545 25.4237 31.5212C26.1059 31.4394 26.7598 31.2761 27.4242 31.0174C28.1381 30.7379 28.8054 30.3584 29.3841 29.9046L29.4136 29.931L30.7845 28.5855C31.7737 27.5919 31.8022 26.0045 30.8485 25.0455Z" fill="white"/>
</g>
</svg>
