<svg width="34" height="32" viewBox="0 0 34 32" fill="none" xmlns="http://www.w3.org/2000/svg">
<path id="Vector" d="M18.1695 24.8462C16.2681 26.3692 15.0307 28.5474 12.737 29.8248C12.9482 26.6968 13.0991 23.9454 13.3255 21.194C13.3557 20.8665 13.7178 20.539 13.9744 20.2933C18.4109 15.9206 22.8475 11.5642 27.2841 7.20789C27.5708 6.92948 27.8123 6.61831 28.0839 6.32352C28.0235 6.20888 27.9632 6.07786 27.9028 5.96322C27.4199 6.17612 26.8918 6.29076 26.4692 6.58555C20.8858 10.3851 15.3174 14.1846 9.74906 18.0332C9.11527 18.4754 8.60219 18.5409 7.89295 18.2789C5.85574 17.5255 3.78836 16.8868 1.75116 16.1662C1.04191 15.9206 0.0308507 15.8714 0.000669939 14.8233C-0.0295108 13.7588 0.966455 13.5295 1.69079 13.2183C5.85574 11.4496 10.0207 9.7136 14.1856 7.97762C19.8294 5.6193 25.4582 3.2446 31.102 0.886278C31.2529 0.820769 31.4189 0.75526 31.5698 0.689751C33.1543 0.0837936 34.2408 0.968163 33.9541 2.78604C33.5768 5.19349 33.0788 7.58457 32.611 9.95926C31.3585 16.3791 30.106 22.799 28.8384 29.2025C28.7479 29.6283 28.6573 30.0541 28.4913 30.4472C28.0839 31.4298 27.435 31.7246 26.5296 31.3315C26.0769 31.135 25.6392 30.8239 25.2469 30.4963C22.8928 28.6457 20.5387 26.7623 18.1695 24.8462Z" fill="white"/>
</svg>
