<svg width="46" height="32" viewBox="0 0 46 32" fill="none" xmlns="http://www.w3.org/2000/svg">
<g id="V-Kontakte-Logo--Streamline-Logos">
<path id="Vector" d="M8.99382 4.44441V3.48145H1.32715V4.44441C1.32715 10.1952 3.35882 16.6509 6.97365 21.6853C10.5923 26.7274 15.8842 30.4444 22.4105 30.4444H26.2438V21.2346C28.3015 21.767 30.2503 22.6581 32.0015 23.8674C34.2402 25.437 35.762 27.3937 35.8272 29.5103L35.8559 30.4444H43.4938V29.4814C43.4938 26.4982 42.1119 23.6844 40.2355 21.3521C38.734 19.5076 36.9542 17.9109 34.9608 16.6201C38.7712 13.789 41.5772 9.49419 41.5772 4.44441V3.48145H33.9105V4.44441C33.9105 6.61493 32.8084 8.44841 31.1122 9.89285C29.7187 11.0754 27.9688 11.9574 26.2438 12.4929V3.48145H18.5772V21.9164C15.8191 20.6915 13.5478 18.2379 11.8918 15.2373C10.002 11.8091 8.99382 7.79359 8.99382 4.44441Z" fill="white"/>
</g>
</svg>
