<svg width="32" height="32" viewBox="0 0 32 32" fill="none" xmlns="http://www.w3.org/2000/svg">
<path id="Vector" d="M0.506221 31.5L2.60182 23.7996C1.22098 21.4325 0.49552 18.7404 0.500021 16C0.500021 7.43935 7.43937 0.5 16 0.5C24.5607 0.5 31.5 7.43935 31.5 16C31.5 24.5606 24.5607 31.5 16 31.5C13.2608 31.5044 10.5698 30.7795 8.20352 29.3997L0.506221 31.5ZM10.4061 8.7274C10.2059 8.73982 10.0103 8.79254 9.83102 8.88239C9.66287 8.97761 9.50938 9.09664 9.37531 9.2358C9.18931 9.41094 9.08392 9.56284 8.97077 9.71009C8.3979 10.4556 8.08976 11.3708 8.09502 12.311C8.09812 13.0705 8.29652 13.8098 8.60652 14.5011C9.24047 15.8992 10.2836 17.3795 11.6616 18.7512C11.9933 19.0814 12.3172 19.4131 12.666 19.7215C14.3762 21.2273 16.4143 22.3132 18.618 22.8928L19.4999 23.0277C19.7867 23.0432 20.0734 23.0215 20.3617 23.0075C20.8131 22.9842 21.2539 22.862 21.6529 22.6495C21.9102 22.5131 22.0311 22.4449 22.2465 22.3085C22.2465 22.3085 22.3132 22.2651 22.4403 22.169C22.6495 22.014 22.7782 21.9039 22.9518 21.7226C23.0804 21.5893 23.192 21.4327 23.2773 21.2545C23.3982 21.0018 23.5191 20.5198 23.5687 20.1183C23.6059 19.8114 23.595 19.644 23.5904 19.5402C23.5842 19.3743 23.4462 19.2023 23.2959 19.1294L22.3938 18.7249C22.3938 18.7249 21.0453 18.1374 20.2222 17.7623C20.1354 17.7245 20.0424 17.703 19.9479 17.6988C19.8418 17.6879 19.7347 17.6998 19.6336 17.7338C19.5325 17.7677 19.4399 17.8229 19.362 17.8956V17.8925C19.3542 17.8925 19.2504 17.9809 18.1297 19.3387C18.0654 19.4251 17.9768 19.4904 17.8752 19.5263C17.7736 19.5622 17.6636 19.567 17.5593 19.5402C17.4583 19.5132 17.3594 19.479 17.2633 19.4379C17.0711 19.3573 17.0044 19.3263 16.8727 19.2689L16.8649 19.2658C15.9782 18.8787 15.1572 18.3558 14.4314 17.7158C14.2361 17.5453 14.0548 17.3593 13.8688 17.1795C13.259 16.5956 12.7275 15.9349 12.2878 15.2141L12.1963 15.0669C12.1306 14.9679 12.0775 14.8612 12.0382 14.7491C11.9793 14.5213 12.1328 14.3384 12.1328 14.3384C12.1328 14.3384 12.5094 13.9261 12.6846 13.7029C12.8304 13.5174 12.9665 13.3244 13.0922 13.1247C13.2751 12.8302 13.3325 12.528 13.2364 12.2939C12.8024 11.2337 12.3529 10.1782 11.891 9.13039C11.7995 8.92269 11.5283 8.77389 11.2818 8.74444C11.1981 8.73514 11.1144 8.72584 11.0307 8.71964C10.8226 8.7093 10.614 8.71137 10.4061 8.72585V8.7274Z" fill="white"/>
</svg>
